<svg width="490" height="490" viewBox="0 0 490 490" fill="none" xmlns="http://www.w3.org/2000/svg">
<g clip-path="url(#clip0_24_954)">
<path d="M351.438 200.959L490 280.966V144.609L393.509 88.896L344.264 174.156C342.973 176.386 342.134 178.849 341.795 181.404C341.457 183.959 341.626 186.556 342.292 189.045C342.958 191.535 344.109 193.869 345.679 195.913C347.248 197.957 349.205 199.672 351.438 200.959Z" fill="#C8CFA4"/>
<path d="M490 280.28L489.794 280.633C488.234 283.333 485.666 285.303 482.654 286.11C479.642 286.916 476.433 286.494 473.732 284.935L461.051 277.614C458.349 276.056 456.377 273.488 455.568 270.476C454.76 267.464 455.181 264.254 456.739 261.552L490 203.967V280.28Z" fill="#858F66"/>
<path d="M158.946 422.801L42.5516 490H0V378.211L99.96 320.529C104.462 317.93 109.811 317.225 114.832 318.571C119.853 319.916 124.134 323.201 126.734 327.702L166.179 396.028C167.463 398.26 168.295 400.724 168.627 403.278C168.958 405.833 168.783 408.427 168.112 410.914C167.44 413.4 166.285 415.73 164.712 417.77C163.139 419.81 161.18 421.519 158.946 422.801Z" fill="#C8CFA4"/>
<path d="M0 456.866L19.11 489.931C19.11 489.931 48.265 490 51.1854 489.931C50.9573 488.978 50.5908 488.064 50.0976 487.217L0 400.506V456.866Z" fill="#858F66"/>
<path d="M36.6422 442.245C36.6362 446.694 35.6003 451.082 33.6158 455.065C31.6312 459.047 28.7518 462.516 25.2029 465.201C21.6541 467.885 17.5321 469.711 13.1597 470.537C8.78736 471.362 4.28324 471.164 0 469.959L0 414.54C4.28324 413.335 8.78736 413.137 13.1597 413.962C17.5321 414.788 21.6541 416.614 25.2029 419.299C28.7518 421.983 31.6312 425.452 33.6158 429.434C35.6003 433.417 36.6362 437.805 36.6422 442.254V442.245Z" fill="#F2F2EB"/>
<path d="M6.57577 443.764L0.0391656 432.435L0.00976562 426.525L7.64397 439.746L18.6004 433.425L20.0704 435.973L6.57577 443.764Z" fill="#E6E6D7"/>
<path d="M245 148.96V105.468H134.868C127.07 105.468 119.592 108.565 114.079 114.079C108.565 119.592 105.468 127.07 105.468 134.868V245H148.96C148.96 251.961 151.725 258.636 156.647 263.558C161.569 268.48 168.244 271.245 175.204 271.245C182.165 271.245 188.84 268.48 193.762 263.558C198.684 258.636 201.449 251.961 201.449 245H245V201.478C238.036 201.478 231.356 198.712 226.432 193.787C221.507 188.863 218.741 182.184 218.741 175.219C218.741 168.255 221.507 161.576 226.432 156.651C231.356 151.727 238.036 148.96 245 148.96Z" fill="#0066F3"/>
<path d="M200.126 317.932L188.856 275.89L146.824 287.14C147.716 290.469 147.944 293.942 147.495 297.359C147.045 300.777 145.927 304.072 144.204 307.058C142.481 310.043 140.186 312.66 137.452 314.758C134.718 316.857 131.597 318.396 128.267 319.289C121.543 321.091 114.379 320.149 108.35 316.669C102.321 313.189 97.9209 307.457 96.1184 300.733L54.0862 312.003L82.5846 418.382C84.6035 425.91 89.5293 432.329 96.2792 436.226C103.029 440.124 111.05 441.182 118.58 439.167L224.959 410.669L213.699 368.627C217.071 367.775 220.24 366.261 223.021 364.173C225.803 362.086 228.142 359.466 229.902 356.467C231.663 353.467 232.809 350.148 233.276 346.701C233.742 343.255 233.519 339.75 232.618 336.391C231.718 333.031 230.16 329.884 228.033 327.133C225.906 324.381 223.253 322.079 220.229 320.362C217.205 318.644 213.869 317.545 210.416 317.128C206.964 316.711 203.462 316.984 200.116 317.932H200.126Z" fill="#0066F3"/>
<path d="M341.04 245C341.04 238.039 338.275 231.364 333.353 226.442C328.431 221.52 321.756 218.755 314.796 218.755C307.835 218.755 301.16 221.52 296.238 226.442C291.316 231.364 288.551 238.039 288.551 245H245V288.522C251.964 288.522 258.643 291.288 263.568 296.213C268.493 301.137 271.259 307.816 271.259 314.781C271.259 321.745 268.493 328.424 263.568 333.349C258.643 338.273 251.964 341.04 245 341.04V384.562H355.132C362.93 384.562 370.408 381.464 375.921 375.951C381.435 370.437 384.532 362.959 384.532 355.162V245H341.04Z" fill="#0066F3"/>
<path d="M339.56 44.8643L317.804 82.5551C311.776 79.0748 304.611 78.132 297.887 79.934C291.164 81.7361 285.431 86.1353 281.951 92.164C278.471 98.1926 277.528 105.357 279.33 112.081C281.132 118.804 285.531 124.537 291.56 128.017L269.794 165.708L307.485 187.464C310.965 181.435 316.698 177.036 323.421 175.234C330.145 173.432 337.309 174.375 343.338 177.855C349.367 181.335 353.766 187.068 355.568 193.792C357.37 200.516 356.427 207.68 352.947 213.708L390.638 235.464L445.704 140.14C447.637 136.794 448.891 133.101 449.395 129.27C449.899 125.44 449.643 121.547 448.642 117.815C447.641 114.084 445.914 110.586 443.56 107.522C441.206 104.459 438.272 101.889 434.924 99.9599L339.56 44.8643Z" fill="#A0E2FA"/>
<path d="M406.23 138.425L452.897 165.365L471.174 133.711L424.507 106.82C421.806 105.261 418.597 104.838 415.585 105.645C412.573 106.452 410.004 108.422 408.444 111.122L401.918 122.412C400.375 125.109 399.963 128.307 400.77 131.308C401.578 134.308 403.541 136.867 406.23 138.425Z" fill="#C8CFA4"/>
<path d="M411.492 133.554L423.566 140.522L434.983 120.736L422.909 113.758C421.11 112.721 418.973 112.439 416.966 112.976C414.96 113.512 413.248 114.823 412.208 116.62L408.66 122.843C407.617 124.639 407.329 126.776 407.86 128.785C408.391 130.793 409.697 132.508 411.492 133.554Z" fill="#F2F2EB"/>
<path d="M104.164 360.267L57.4868 387.198L39.2 355.544L85.8676 328.604C88.5673 327.048 91.7741 326.627 94.7838 327.434C97.7936 328.24 100.36 330.208 101.92 332.906L108.437 344.195C110.001 346.893 110.43 350.102 109.629 353.116C108.828 356.13 106.862 358.703 104.164 360.267Z" fill="#C8CFA4"/>
<path d="M98.9015 355.387L86.8279 362.355L75.4011 342.569L87.4747 335.591C88.3665 335.076 89.3511 334.742 90.3721 334.608C91.3931 334.473 92.4306 334.541 93.4253 334.808C94.42 335.075 95.3524 335.535 96.1693 336.162C96.9861 336.789 97.6715 337.571 98.1861 338.463L101.773 344.676C102.288 345.568 102.622 346.552 102.757 347.573C102.891 348.594 102.823 349.632 102.556 350.626C102.29 351.621 101.83 352.553 101.202 353.37C100.575 354.187 99.7935 354.873 98.9015 355.387Z" fill="#F2F2EB"/>
</g>
<defs>
<clipPath id="clip0_24_954">
<rect width="490" height="490" fill="white"/>
</clipPath>
</defs>
</svg>
