<svg width="490" height="490" viewBox="0 0 490 490" fill="none" xmlns="http://www.w3.org/2000/svg">
<g clip-path="url(#clip0_24_1158)">
<path d="M260.415 291.138H339.305C344.504 291.138 349.489 293.203 353.165 296.879C356.84 300.555 358.905 305.54 358.905 310.738V490H240.815V310.738C240.815 308.164 241.322 305.616 242.307 303.238C243.292 300.86 244.736 298.699 246.556 296.879C248.376 295.059 250.537 293.615 252.915 292.63C255.293 291.645 257.842 291.138 260.415 291.138Z" fill="#EEEEEE"/>
<path d="M123.127 196.794H202.017C207.215 196.794 212.201 198.859 215.876 202.535C219.552 206.21 221.617 211.196 221.617 216.394V490H103.527V216.394C103.527 211.196 105.592 206.21 109.268 202.535C112.944 198.859 117.929 196.794 123.127 196.794Z" fill="#EEEEEE"/>
<path d="M476.956 254.124L444.695 374.536C444.028 377.023 442.879 379.354 441.311 381.396C439.744 383.438 437.79 385.152 435.56 386.439C433.33 387.725 430.869 388.56 428.317 388.896C425.764 389.231 423.171 389.061 420.685 388.394L413.423 386.434L397.743 445.077L338.943 366.471L203.536 330.211C198.517 328.865 194.237 325.581 191.638 321.08C189.04 316.579 188.335 311.231 189.679 306.211L221.941 185.808C222.606 183.321 223.755 180.989 225.322 178.945C226.889 176.902 228.843 175.188 231.072 173.9C233.302 172.612 235.764 171.776 238.317 171.44C240.87 171.104 243.464 171.274 245.951 171.941L463.138 230.143C468.146 231.498 472.413 234.783 475.003 239.278C477.593 243.773 478.296 249.112 476.956 254.124Z" fill="#A0E2FA"/>
<path d="M11.8678 132.565L44.1 252.967C45.4438 257.989 48.7273 262.271 53.2282 264.871C57.7291 267.472 63.0787 268.178 68.1002 266.834L75.3718 264.874L91.0518 323.518L149.852 244.902L285.258 208.642C290.278 207.296 294.558 204.012 297.156 199.511C299.755 195.01 300.46 189.662 299.116 184.642L266.923 64.2194C265.577 59.1997 262.292 54.9201 257.792 52.3215C253.291 49.7229 247.943 49.0181 242.922 50.3622L25.725 108.564C20.7053 109.91 16.4257 113.195 13.8271 117.695C11.2285 122.196 10.5237 127.544 11.8678 132.565Z" fill="#0066F3"/>
<path d="M62.3965 151.214L234.808 105.017" stroke="white" stroke-width="20" stroke-miterlimit="10" stroke-linecap="round"/>
<path d="M77.8806 194.354L175.234 168.266" stroke="white" stroke-width="20" stroke-miterlimit="10" stroke-linecap="round"/>
<path d="M387.796 318.862C399.189 318.862 408.425 309.627 408.425 298.234C408.425 286.84 399.189 277.604 387.796 277.604C376.403 277.604 367.167 286.84 367.167 298.234C367.167 309.627 376.403 318.862 387.796 318.862Z" fill="white"/>
<path d="M326.977 302.565C338.37 302.565 347.606 293.329 347.606 281.936C347.606 270.543 338.37 261.307 326.977 261.307C315.584 261.307 306.348 270.543 306.348 281.936C306.348 293.329 315.584 302.565 326.977 302.565Z" fill="white"/>
<path d="M266.148 286.268C277.541 286.268 286.777 277.032 286.777 265.639C286.777 254.246 277.541 245.01 266.148 245.01C254.755 245.01 245.519 254.246 245.519 265.639C245.519 277.032 254.755 286.268 266.148 286.268Z" fill="white"/>
<path d="M304.506 336.601V390.501H341.04V336.601C341.04 333.482 339.801 330.491 337.596 328.285C335.39 326.08 332.399 324.841 329.28 324.841H316.266C313.147 324.841 310.155 326.08 307.95 328.285C305.745 330.491 304.506 333.482 304.506 336.601Z" fill="#EEEEEE"/>
<path d="M334.18 339.462V353.398H311.356V339.462C311.356 337.383 312.182 335.389 313.652 333.918C315.122 332.448 317.116 331.622 319.196 331.622H326.34C328.419 331.622 330.413 332.448 331.884 333.918C333.354 335.389 334.18 337.383 334.18 339.462Z" fill="#FAFAFA"/>
<path d="M112.631 242.256V296.156H149.185V242.256C149.185 239.137 147.946 236.146 145.741 233.941C143.536 231.735 140.544 230.496 137.425 230.496H124.391C121.272 230.496 118.281 231.735 116.076 233.941C113.87 236.146 112.631 239.137 112.631 242.256Z" fill="#EEEEEE"/>
<path d="M142.335 245.117V259.053H119.482V245.117C119.482 243.038 120.308 241.044 121.778 239.574C123.248 238.103 125.242 237.277 127.322 237.277H134.495C136.575 237.277 138.569 238.103 140.039 239.574C141.509 241.044 142.335 243.038 142.335 245.117Z" fill="#FAFAFA"/>
<path d="M221.118 347.772H104.027C97.5322 347.772 92.2671 353.038 92.2671 359.532V374.174C92.2671 380.669 97.5322 385.934 104.027 385.934H221.118C227.612 385.934 232.878 380.669 232.878 374.174V359.532C232.878 353.038 227.612 347.772 221.118 347.772Z" fill="#DCDCDC"/>
<path d="M221.118 398.204H104.027C97.5322 398.204 92.2671 403.469 92.2671 409.964V424.605C92.2671 431.1 97.5322 436.365 104.027 436.365H221.118C227.612 436.365 232.878 431.1 232.878 424.605V409.964C232.878 403.469 227.612 398.204 221.118 398.204Z" fill="#DCDCDC"/>
<path d="M257.358 475.878C270.515 475.878 281.182 465.212 281.182 452.054C281.182 438.897 270.515 428.23 257.358 428.23C244.2 428.23 233.534 438.897 233.534 452.054C233.534 465.212 244.2 475.878 257.358 475.878Z" fill="#DCDCDC"/>
<path d="M299.459 475.878C312.616 475.878 323.282 465.212 323.282 452.054C323.282 438.897 312.616 428.23 299.459 428.23C286.301 428.23 275.635 438.897 275.635 452.054C275.635 465.212 286.301 475.878 299.459 475.878Z" fill="#DCDCDC"/>
<path d="M342.363 475.878C355.521 475.878 366.187 465.212 366.187 452.054C366.187 438.897 355.521 428.23 342.363 428.23C329.206 428.23 318.539 438.897 318.539 452.054C318.539 465.212 329.206 475.878 342.363 475.878Z" fill="#DCDCDC"/>
</g>
<defs>
<clipPath id="clip0_24_1158">
<rect width="490" height="490" fill="white"/>
</clipPath>
</defs>
</svg>
