<svg width="490" height="490" viewBox="0 0 490 490" fill="none" xmlns="http://www.w3.org/2000/svg">
<g clip-path="url(#clip0_24_726)">
<path d="M205.555 322.479H284.445C289.643 322.479 294.629 324.544 298.304 328.22C301.98 331.895 304.045 336.881 304.045 342.079V490H185.955V342.079C185.955 336.881 188.02 331.895 191.696 328.22C195.371 324.544 200.357 322.479 205.555 322.479Z" fill="#BAE3F5"/>
<path d="M367.608 214.316C367.608 182.062 354.899 151.108 332.236 128.158C309.573 105.209 278.78 92.1131 246.529 91.7083C179.575 90.8949 123.921 144.55 122.422 211.494C121.929 232.356 126.773 252.998 136.496 271.463C146.219 289.928 160.498 305.602 177.978 317.001C183.018 320.265 187.165 324.734 190.043 330.004C192.922 335.275 194.44 341.18 194.461 347.185V398.86C194.469 402.014 195.725 405.036 197.954 407.267C200.183 409.498 203.205 410.757 206.359 410.767H283.641C286.795 410.757 289.817 409.498 292.046 407.267C294.275 405.036 295.531 402.014 295.539 398.86V347.175C295.535 341.215 297.018 335.349 299.853 330.108C302.689 324.866 306.787 320.415 311.777 317.157C328.924 306.034 343.015 290.797 352.766 272.834C362.518 254.872 367.62 234.755 367.608 214.316Z" fill="#2962EF"/>
<path d="M293.784 393.196H196.206C191.697 393.196 188.042 396.851 188.042 401.359V402.584C188.042 407.093 191.697 410.748 196.206 410.748H293.784C298.293 410.748 301.948 407.093 301.948 402.584V401.359C301.948 396.851 298.293 393.196 293.784 393.196Z" fill="#2962EF"/>
<path d="M293.784 361.649H196.206C191.697 361.649 188.042 365.304 188.042 369.813V371.038C188.042 375.546 191.697 379.201 196.206 379.201H293.784C298.293 379.201 301.948 375.546 301.948 371.038V369.813C301.948 365.304 298.293 361.649 293.784 361.649Z" fill="#2962EF"/>
<path d="M293.784 330.103H196.206C191.697 330.103 188.042 333.758 188.042 338.266V339.491C188.042 344 191.697 347.655 196.206 347.655H293.784C298.293 347.655 301.948 344 301.948 339.491V338.266C301.948 333.758 298.293 330.103 293.784 330.103Z" fill="#2962EF"/>
<path d="M249.645 367.941V421.841H286.199V367.941C286.199 364.822 284.96 361.831 282.755 359.626C280.549 357.42 277.558 356.181 274.439 356.181H261.405C258.286 356.181 255.295 357.42 253.09 359.626C250.884 361.831 249.645 364.822 249.645 367.941Z" fill="#BAE3F5"/>
<path d="M279.349 370.802V384.738H256.495V370.802C256.495 368.723 257.321 366.729 258.792 365.259C260.262 363.788 262.256 362.962 264.335 362.962H271.509C273.588 362.962 275.582 363.788 277.053 365.259C278.523 366.729 279.349 368.723 279.349 370.802Z" fill="#DFF4FF"/>
<path d="M223.802 469.42C221.05 463.759 216.17 459.418 210.228 457.344C204.285 455.269 197.763 455.631 192.086 458.35C186.41 461.068 182.039 465.923 179.93 471.853C177.821 477.783 178.144 484.307 180.829 490H222.509C221.171 486.691 220.593 483.125 220.817 479.563C221.041 476.001 222.061 472.535 223.802 469.42Z" fill="#74D0F9"/>
<path d="M266.08 470.772C264.195 466.835 261.266 463.492 257.61 461.106C253.955 458.721 249.715 457.386 245.352 457.246C240.99 457.107 236.673 458.168 232.872 460.315C229.072 462.462 225.935 465.612 223.802 469.42C225.398 472.605 226.259 476.107 226.322 479.669C226.385 483.231 225.648 486.761 224.165 490H265.325C264.101 486.921 263.533 483.622 263.656 480.311C263.779 477 264.591 473.752 266.04 470.772H266.08Z" fill="#74D0F9"/>
<path d="M223.803 469.42C222.061 472.535 221.041 476.001 220.817 479.563C220.593 483.125 221.171 486.691 222.509 490H224.165C225.648 486.761 226.385 483.23 226.322 479.669C226.259 476.107 225.398 472.605 223.803 469.42Z" fill="#74D0F9"/>
<path d="M287.503 457.386C283.036 457.384 278.659 458.639 274.871 461.006C271.083 463.373 268.037 466.757 266.08 470.773C267.507 473.761 268.297 477.013 268.4 480.323C268.503 483.634 267.917 486.929 266.678 490H309.68C311.117 486.387 311.647 482.477 311.225 478.611C310.802 474.746 309.439 471.043 307.255 467.825C305.071 464.608 302.133 461.974 298.697 460.155C295.26 458.335 291.43 457.384 287.542 457.386H287.503Z" fill="#74D0F9"/>
<path d="M266.08 470.772C264.631 473.752 263.819 477 263.696 480.311C263.573 483.621 264.141 486.921 265.365 490H266.678C267.917 486.929 268.503 483.633 268.4 480.323C268.297 477.013 267.507 473.761 266.08 470.772Z" fill="#74D0F9"/>
</g>
<defs>
<clipPath id="clip0_24_726">
<rect width="490" height="490" fill="white"/>
</clipPath>
</defs>
</svg>
